<svg width="40" height="40" viewBox="0 0 40 40" fill="none" xmlns="http://www.w3.org/2000/svg">
<path d="M11.6667 18.9998C11.1145 18.9998 10.6667 19.4476 10.6667 19.9998C10.6667 20.5521 11.1145 20.9998 11.6667 20.9998V18.9998ZM20.0001 20.9998C20.5524 20.9998 21.0001 20.5521 21.0001 19.9998C21.0001 19.4476 20.5524 18.9998 20.0001 18.9998V20.9998ZM20.0001 18.9998C19.4478 18.9998 19.0001 19.4476 19.0001 19.9998C19.0001 20.5521 19.4478 20.9998 20.0001 20.9998V18.9998ZM28.3334 20.9998C28.8857 20.9998 29.3334 20.5521 29.3334 19.9998C29.3334 19.4476 28.8857 18.9998 28.3334 18.9998V20.9998ZM21.0001 19.9998C21.0001 19.4476 20.5524 18.9998 20.0001 18.9998C19.4478 18.9998 19.0001 19.4476 19.0001 19.9998H21.0001ZM19.0001 28.3332C19.0001 28.8855 19.4478 29.3332 20.0001 29.3332C20.5524 29.3332 21.0001 28.8855 21.0001 28.3332H19.0001ZM19.0001 19.9998C19.0001 20.5521 19.4478 20.9998 20.0001 20.9998C20.5524 20.9998 21.0001 20.5521 21.0001 19.9998H19.0001ZM21.0001 11.6665C21.0001 11.1142 20.5524 10.6665 20.0001 10.6665C19.4478 10.6665 19.0001 11.1142 19.0001 11.6665H21.0001ZM11.6667 20.9998H20.0001V18.9998H11.6667V20.9998ZM20.0001 20.9998H28.3334V18.9998H20.0001V20.9998ZM20.0001 19.9998H19.0001C19.0001 19.9998 19.0001 19.9998 19.0001 19.9998C19.0001 19.9998 19.0001 19.9998 19.0001 19.9998C19.0001 19.9998 19.0001 19.9998 19.0001 19.9998C19.0001 19.9998 19.0001 19.9998 19.0001 19.9998C19.0001 19.9998 19.0001 19.9998 19.0001 19.9999C19.0001 19.9999 19.0001 19.9999 19.0001 19.9999C19.0001 19.9999 19.0001 19.9999 19.0001 19.9999C19.0001 19.9999 19.0001 19.9999 19.0001 19.9999C19.0001 19.9999 19.0001 19.9999 19.0001 19.9999C19.0001 19.9999 19.0001 19.9999 19.0001 19.9999C19.0001 19.9999 19.0001 19.9999 19.0001 19.9999C19.0001 20 19.0001 20 19.0001 20C19.0001 20 19.0001 20 19.0001 20C19.0001 20 19.0001 20 19.0001 20C19.0001 20.0001 19.0001 20.0001 19.0001 20.0001C19.0001 20.0001 19.0001 20.0001 19.0001 20.0001C19.0001 20.0002 19.0001 20.0002 19.0001 20.0002C19.0001 20.0002 19.0001 20.0002 19.0001 20.0003C19.0001 20.0003 19.0001 20.0003 19.0001 20.0003C19.0001 20.0004 19.0001 20.0004 19.0001 20.0004C19.0001 20.0004 19.0001 20.0005 19.0001 20.0005C19.0001 20.0005 19.0001 20.0006 19.0001 20.0006C19.0001 20.0006 19.0001 20.0007 19.0001 20.0007C19.0001 20.0007 19.0001 20.0008 19.0001 20.0008C19.0001 20.0008 19.0001 20.0009 19.0001 20.0009C19.0001 20.001 19.0001 20.001 19.0001 20.0011C19.0001 20.0011 19.0001 20.0012 19.0001 20.0012C19.0001 20.0012 19.0001 20.0013 19.0001 20.0014C19.0001 20.0014 19.0001 20.0015 19.0001 20.0015C19.0001 20.0016 19.0001 20.0016 19.0001 20.0017C19.0001 20.0017 19.0001 20.0018 19.0001 20.0019C19.0001 20.0019 19.0001 20.002 19.0001 20.0021C19.0001 20.0021 19.0001 20.0022 19.0001 20.0023C19.0001 20.0023 19.0001 20.0024 19.0001 20.0025C19.0001 20.0026 19.0001 20.0027 19.0001 20.0027C19.0001 20.0028 19.0001 20.0029 19.0001 20.003C19.0001 20.0031 19.0001 20.0032 19.0001 20.0032C19.0001 20.0033 19.0001 20.0034 19.0001 20.0035C19.0001 20.0036 19.0001 20.0037 19.0001 20.0038C19.0001 20.0039 19.0001 20.004 19.0001 20.0041C19.0001 20.0042 19.0001 20.0043 19.0001 20.0044C19.0001 20.0045 19.0001 20.0047 19.0001 20.0048C19.0001 20.0049 19.0001 20.005 19.0001 20.0051C19.0001 20.0052 19.0001 20.0054 19.0001 20.0055C19.0001 20.0056 19.0001 20.0057 19.0001 20.0059C19.0001 20.006 19.0001 20.0061 19.0001 20.0063C19.0001 20.0064 19.0001 20.0066 19.0001 20.0067C19.0001 20.0068 19.0001 20.007 19.0001 20.0071C19.0001 20.0073 19.0001 20.0074 19.0001 20.0076C19.0001 20.0078 19.0001 20.0079 19.0001 20.0081C19.0001 20.0082 19.0001 20.0084 19.0001 20.0086C19.0001 20.0087 19.0001 20.0089 19.0001 20.0091C19.0001 20.0093 19.0001 20.0094 19.0001 20.0096C19.0001 20.0098 19.0001 20.01 19.0001 20.0102C19.0001 20.0104 19.0001 20.0105 19.0001 20.0107C19.0001 20.0109 19.0001 20.0111 19.0001 20.0113C19.0001 20.0115 19.0001 20.0117 19.0001 20.012C19.0001 20.0122 19.0001 20.0124 19.0001 20.0126C19.0001 20.0128 19.0001 20.013 19.0001 20.0132C19.0001 20.0135 19.0001 20.0137 19.0001 20.0139C19.0001 20.0142 19.0001 20.0144 19.0001 20.0146C19.0001 20.0149 19.0001 20.0151 19.0001 20.0154C19.0001 20.0156 19.0001 20.0159 19.0001 20.0161C19.0001 20.0164 19.0001 20.0166 19.0001 20.0169C19.0001 20.0171 19.0001 20.0174 19.0001 20.0177C19.0001 20.018 19.0001 20.0182 19.0001 20.0185C19.0001 20.0188 19.0001 20.0191 19.0001 20.0194C19.0001 20.0196 19.0001 20.0199 19.0001 20.0202C19.0001 20.0205 19.0001 20.0208 19.0001 20.0211C19.0001 20.0214 19.0001 20.0217 19.0001 20.0221C19.0001 20.0224 19.0001 20.0227 19.0001 20.023C19.0001 20.0233 19.0001 20.0237 19.0001 20.024C19.0001 20.0243 19.0001 20.0247 19.0001 20.025C19.0001 20.0253 19.0001 20.0257 19.0001 20.026C19.0001 20.0264 19.0001 20.0267 19.0001 20.0271C19.0001 20.0275 19.0001 20.0278 19.0001 20.0282C19.0001 20.0286 19.0001 20.0289 19.0001 20.0293C19.0001 20.0297 19.0001 20.0301 19.0001 20.0304C19.0001 20.0308 19.0001 20.0312 19.0001 20.0316C19.0001 20.032 19.0001 20.0324 19.0001 20.0328C19.0001 20.0332 19.0001 20.0337 19.0001 20.0341C19.0001 20.0345 19.0001 20.0349 19.0001 20.0353C19.0001 20.0358 19.0001 20.0362 19.0001 20.0366C19.0001 20.0371 19.0001 20.0375 19.0001 20.038C19.0001 20.0384 19.0001 20.0389 19.0001 20.0393C19.0001 20.0398 19.0001 20.0403 19.0001 20.0407C19.0001 20.0412 19.0001 20.0417 19.0001 20.0421C19.0001 20.0426 19.0001 20.0431 19.0001 20.0436C19.0001 20.0441 19.0001 20.0446 19.0001 20.0451C19.0001 20.0456 19.0001 20.0461 19.0001 20.0466C19.0001 20.0471 19.0001 20.0477 19.0001 20.0482C19.0001 20.0487 19.0001 20.0492 19.0001 20.0498C19.0001 20.0503 19.0001 20.0509 19.0001 20.0514C19.0001 20.052 19.0001 20.0525 19.0001 20.0531C19.0001 20.0536 19.0001 20.0542 19.0001 20.0548C19.0001 20.0553 19.0001 20.0559 19.0001 20.0565C19.0001 20.0571 19.0001 20.0577 19.0001 20.0583C19.0001 20.0589 19.0001 20.0595 19.0001 20.0601C19.0001 20.0607 19.0001 20.0613 19.0001 20.0619C19.0001 20.0625 19.0001 20.0632 19.0001 20.0638C19.0001 20.0644 19.0001 20.0651 19.0001 20.0657C19.0001 20.0664 19.0001 20.067 19.0001 20.0677C19.0001 20.0683 19.0001 20.069 19.0001 20.0697C19.0001 20.0703 19.0001 20.071 19.0001 20.0717C19.0001 20.0724 19.0001 20.0731 19.0001 20.0738C19.0001 20.0745 19.0001 20.0752 19.0001 20.0759C19.0001 20.0766 19.0001 20.0773 19.0001 20.0781C19.0001 20.0788 19.0001 20.0795 19.0001 20.0802C19.0001 20.081 19.0001 20.0817 19.0001 20.0825C19.0001 20.0832 19.0001 20.084 19.0001 20.0848C19.0001 20.0855 19.0001 20.0863 19.0001 20.0871C19.0001 20.0878 19.0001 20.0886 19.0001 20.0894C19.0001 20.0902 19.0001 20.091 19.0001 20.0918C19.0001 20.0926 19.0001 20.0934 19.0001 20.0943C19.0001 20.0951 19.0001 20.0959 19.0001 20.0968C19.0001 20.0976 19.0001 20.0984 19.0001 20.0993C19.0001 20.1001 19.0001 20.101 19.0001 20.1018C19.0001 20.1027 19.0001 20.1036 19.0001 20.1045C19.0001 20.1053 19.0001 20.1062 19.0001 20.1071C19.0001 20.108 19.0001 20.1089 19.0001 20.1098C19.0001 20.1107 19.0001 20.1117 19.0001 20.1126C19.0001 20.1135 19.0001 20.1144 19.0001 20.1154C19.0001 20.1163 19.0001 20.1173 19.0001 20.1182C19.0001 20.1192 19.0001 20.1201 19.0001 20.1211C19.0001 20.1221 19.0001 20.1231 19.0001 20.124C19.0001 20.125 19.0001 20.126 19.0001 20.127C19.0001 20.128 19.0001 20.129 19.0001 20.13C19.0001 20.1311 19.0001 20.1321 19.0001 20.1331C19.0001 20.1342 19.0001 20.1352 19.0001 20.1362C19.0001 20.1373 19.0001 20.1384 19.0001 20.1394C19.0001 20.1405 19.0001 20.1416 19.0001 20.1426C19.0001 20.1437 19.0001 20.1448 19.0001 20.1459C19.0001 20.147 19.0001 20.1481 19.0001 20.1492C19.0001 20.1503 19.0001 20.1515 19.0001 20.1526C19.0001 20.1537 19.0001 20.1549 19.0001 20.156C19.0001 20.1572 19.0001 20.1583 19.0001 20.1595C19.0001 20.1607 19.0001 20.1618 19.0001 20.163C19.0001 20.1642 19.0001 20.1654 19.0001 20.1666C19.0001 20.1678 19.0001 20.169 19.0001 20.1702C19.0001 20.1714 19.0001 20.1726 19.0001 20.1739C19.0001 20.1751 19.0001 20.1764 19.0001 20.1776C19.0001 20.1789 19.0001 20.1801 19.0001 20.1814C19.0001 20.1827 19.0001 20.1839 19.0001 20.1852C19.0001 20.1865 19.0001 20.1878 19.0001 20.1891C19.0001 20.1904 19.0001 20.1917 19.0001 20.1931C19.0001 20.1944 19.0001 20.1957 19.0001 20.1971C19.0001 20.1984 19.0001 20.1998 19.0001 20.2011C19.0001 20.2025 19.0001 20.2038 19.0001 20.2052C19.0001 20.2066 19.0001 20.208 19.0001 20.2094C19.0001 20.2108 19.0001 20.2122 19.0001 20.2136C19.0001 20.215 19.0001 20.2164 19.0001 20.2179C19.0001 20.2193 19.0001 20.2208 19.0001 20.2222C19.0001 20.2237 19.0001 20.2251 19.0001 20.2266C19.0001 20.2281 19.0001 20.2296 19.0001 20.231C19.0001 20.2325 19.0001 20.234 19.0001 20.2355C19.0001 20.2371 19.0001 20.2386 19.0001 20.2401C19.0001 20.2416 19.0001 20.2432 19.0001 20.2447C19.0001 20.2463 19.0001 20.2478 19.0001 20.2494C19.0001 20.251 19.0001 20.2526 19.0001 20.2542C19.0001 20.2557 19.0001 20.2573 19.0001 20.2589C19.0001 20.2606 19.0001 20.2622 19.0001 20.2638C19.0001 20.2654 19.0001 20.2671 19.0001 20.2687C19.0001 20.2704 19.0001 20.272 19.0001 20.2737C19.0001 20.2754 19.0001 20.2771 19.0001 20.2787C19.0001 20.2804 19.0001 20.2821 19.0001 20.2838C19.0001 20.2856 19.0001 20.2873 19.0001 20.289C19.0001 20.2907 19.0001 20.2925 19.0001 20.2942C19.0001 20.296 19.0001 20.2978 19.0001 20.2995C19.0001 20.3013 19.0001 20.3031 19.0001 20.3049C19.0001 20.3067 19.0001 20.3085 19.0001 20.3103C19.0001 20.3121 19.0001 20.3139 19.0001 20.3158C19.0001 20.3176 19.0001 20.3195 19.0001 20.3213C19.0001 20.3232 19.0001 20.325 19.0001 20.3269C19.0001 20.3288 19.0001 20.3307 19.0001 20.3326C19.0001 20.3345 19.0001 20.3364 19.0001 20.3383C19.0001 20.3403 19.0001 20.3422 19.0001 20.3441C19.0001 20.3461 19.0001 20.348 19.0001 20.35C19.0001 20.352 19.0001 20.3539 19.0001 20.3559C19.0001 20.3579 19.0001 20.3599 19.0001 20.3619C19.0001 20.3639 19.0001 20.366 19.0001 20.368C19.0001 20.37 19.0001 20.3721 19.0001 20.3741C19.0001 20.3762 19.0001 20.3783 19.0001 20.3803C19.0001 20.3824 19.0001 20.3845 19.0001 20.3866C19.0001 20.3887 19.0001 20.3908 19.0001 20.393C19.0001 20.3951 19.0001 20.3972 19.0001 20.3994C19.0001 20.4015 19.0001 20.4037 19.0001 20.4058C19.0001 20.408 19.0001 20.4102 19.0001 20.4124C19.0001 20.4146 19.0001 20.4168 19.0001 20.419C19.0001 20.4212 19.0001 20.4235 19.0001 20.4257C19.0001 20.4279 19.0001 20.4302 19.0001 20.4325C19.0001 20.4347 19.0001 20.437 19.0001 20.4393C19.0001 20.4416 19.0001 20.4439 19.0001 20.4462C19.0001 20.4485 19.0001 20.4508 19.0001 20.4532C19.0001 20.4555 19.0001 20.4579 19.0001 20.4602C19.0001 20.4626 19.0001 20.4649 19.0001 20.4673C19.0001 20.4697 19.0001 20.4721 19.0001 20.4745C19.0001 20.4769 19.0001 20.4794 19.0001 20.4818C19.0001 20.4842 19.0001 20.4867 19.0001 20.4891C19.0001 20.4916 19.0001 20.4941 19.0001 20.4965C19.0001 20.499 19.0001 20.5015 19.0001 20.504C19.0001 20.5065 19.0001 20.5091 19.0001 20.5116C19.0001 20.5141 19.0001 20.5167 19.0001 20.5192C19.0001 20.5218 19.0001 20.5244 19.0001 20.5269C19.0001 20.5295 19.0001 20.5321 19.0001 20.5347C19.0001 20.5373 19.0001 20.54 19.0001 20.5426C19.0001 20.5452 19.0001 20.5479 19.0001 20.5505C19.0001 20.5532 19.0001 20.5559 19.0001 20.5586C19.0001 20.5612 19.0001 20.5639 19.0001 20.5667C19.0001 20.5694 19.0001 20.5721 19.0001 20.5748C19.0001 20.5776 19.0001 20.5803 19.0001 20.5831C19.0001 20.5859 19.0001 20.5886 19.0001 20.5914C19.0001 20.5942 19.0001 20.597 19.0001 20.5998C19.0001 20.6026 19.0001 20.6055 19.0001 20.6083C19.0001 20.6112 19.0001 20.614 19.0001 20.6169C19.0001 20.6198 19.0001 20.6226 19.0001 20.6255C19.0001 20.6284 19.0001 20.6313 19.0001 20.6343C19.0001 20.6372 19.0001 20.6401 19.0001 20.6431C19.0001 20.646 19.0001 20.649 19.0001 20.652C19.0001 20.655 19.0001 20.6579 19.0001 20.661C19.0001 20.664 19.0001 20.667 19.0001 20.67C19.0001 20.673 19.0001 20.6761 19.0001 20.6791C19.0001 20.6822 19.0001 20.6853 19.0001 20.6884C19.0001 20.6915 19.0001 20.6946 19.0001 20.6977C19.0001 20.7008 19.0001 20.7039 19.0001 20.7071C19.0001 20.7102 19.0001 20.7134 19.0001 20.7165C19.0001 20.7197 19.0001 20.7229 19.0001 20.7261C19.0001 20.7293 19.0001 20.7325 19.0001 20.7357C19.0001 20.739 19.0001 20.7422 19.0001 20.7455C19.0001 20.7487 19.0001 20.752 19.0001 20.7553C19.0001 20.7585 19.0001 20.7618 19.0001 20.7652C19.0001 20.7685 19.0001 20.7718 19.0001 20.7751C19.0001 20.7785 19.0001 20.7818 19.0001 20.7852C19.0001 20.7886 19.0001 20.792 19.0001 20.7954C19.0001 20.7988 19.0001 20.8022 19.0001 20.8056C19.0001 20.809 19.0001 20.8125 19.0001 20.8159C19.0001 20.8194 19.0001 20.8229 19.0001 20.8264C19.0001 20.8298 19.0001 20.8333 19.0001 20.8369C19.0001 20.8404 19.0001 20.8439 19.0001 20.8475C19.0001 20.851 19.0001 20.8546 19.0001 20.8581C19.0001 20.8617 19.0001 20.8653 19.0001 20.8689C19.0001 20.8725 19.0001 20.8761 19.0001 20.8798C19.0001 20.8834 19.0001 20.8871 19.0001 20.8907C19.0001 20.8944 19.0001 20.8981 19.0001 20.9018C19.0001 20.9055 19.0001 20.9092 19.0001 20.9129C19.0001 20.9166 19.0001 20.9204 19.0001 20.9241C19.0001 20.9279 19.0001 20.9317 19.0001 20.9355C19.0001 20.9392 19.0001 20.943 19.0001 20.9469C19.0001 20.9507 19.0001 20.9545 19.0001 20.9584C19.0001 20.9622 19.0001 20.9661 19.0001 20.97C19.0001 20.9738 19.0001 20.9777 19.0001 20.9817C19.0001 20.9856 19.0001 20.9895 19.0001 20.9934C19.0001 20.9974 19.0001 21.0013 19.0001 21.0053C19.0001 21.0093 19.0001 21.0133 19.0001 21.0173C19.0001 21.0213 19.0001 21.0253 19.0001 21.0293C19.0001 21.0334 19.0001 21.0374 19.0001 21.0415C19.0001 21.0456 19.0001 21.0497 19.0001 21.0538C19.0001 21.0579 19.0001 21.062 19.0001 21.0661C19.0001 21.0702 19.0001 21.0744 19.0001 21.0786C19.0001 21.0827 19.0001 21.0869 19.0001 21.0911C19.0001 21.0953 19.0001 21.0995 19.0001 21.1037C19.0001 21.108 19.0001 21.1122 19.0001 21.1165C19.0001 21.1207 19.0001 21.125 19.0001 21.1293C19.0001 21.1336 19.0001 21.1379 19.0001 21.1422C19.0001 21.1466 19.0001 21.1509 19.0001 21.1553C19.0001 21.1596 19.0001 21.164 19.0001 21.1684C19.0001 21.1728 19.0001 21.1772 19.0001 21.1816C19.0001 21.1861 19.0001 21.1905 19.0001 21.195C19.0001 21.1994 19.0001 21.2039 19.0001 21.2084C19.0001 21.2129 19.0001 21.2174 19.0001 21.2219C19.0001 21.2264 19.0001 21.231 19.0001 21.2355C19.0001 21.2401 19.0001 21.2447 19.0001 21.2493C19.0001 21.2539 19.0001 21.2585 19.0001 21.2631C19.0001 21.2677 19.0001 21.2724 19.0001 21.277C19.0001 21.2817 19.0001 21.2864 19.0001 21.2911C19.0001 21.2958 19.0001 21.3005 19.0001 21.3052C19.0001 21.3099 19.0001 21.3147 19.0001 21.3195C19.0001 21.3242 19.0001 21.329 19.0001 21.3338C19.0001 21.3386 19.0001 21.3434 19.0001 21.3482C19.0001 21.3531 19.0001 21.3579 19.0001 21.3628C19.0001 21.3677 19.0001 21.3725 19.0001 21.3775C19.0001 21.3824 19.0001 21.3873 19.0001 21.3922C19.0001 21.3971 19.0001 21.4021 19.0001 21.4071C19.0001 21.412 19.0001 21.417 19.0001 21.422C19.0001 21.4271 19.0001 21.4321 19.0001 21.4371C19.0001 21.4422 19.0001 21.4472 19.0001 21.4523C19.0001 21.4574 19.0001 21.4625 19.0001 21.4676C19.0001 21.4727 19.0001 21.4778 19.0001 21.483C19.0001 21.4881 19.0001 21.4933 19.0001 21.4985C19.0001 21.5037 19.0001 21.5089 19.0001 21.5141C19.0001 21.5193 19.0001 21.5246 19.0001 21.5298C19.0001 21.5351 19.0001 21.5404 19.0001 21.5457C19.0001 21.5509 19.0001 21.5563 19.0001 21.5616C19.0001 21.5669 19.0001 21.5723 19.0001 21.5776C19.0001 21.583 19.0001 21.5884 19.0001 21.5938C19.0001 21.5992 19.0001 21.6046 19.0001 21.6101C19.0001 21.6155 19.0001 21.621 19.0001 21.6264C19.0001 21.6319 19.0001 21.6374 19.0001 21.6429C19.0001 21.6484 19.0001 21.654 19.0001 21.6595C19.0001 21.6651 19.0001 21.6706 19.0001 21.6762C19.0001 21.6818 19.0001 21.6874 19.0001 21.693C19.0001 21.6987 19.0001 21.7043 19.0001 21.71C19.0001 21.7156 19.0001 21.7213 19.0001 21.727C19.0001 21.7327 19.0001 21.7384 19.0001 21.7442C19.0001 21.7499 19.0001 21.7557 19.0001 21.7614C19.0001 21.7672 19.0001 21.773 19.0001 21.7788C19.0001 21.7846 19.0001 21.7905 19.0001 21.7963C19.0001 21.8022 19.0001 21.808 19.0001 21.8139C19.0001 21.8198 19.0001 21.8257 19.0001 21.8317C19.0001 21.8376 19.0001 21.8435 19.0001 21.8495C19.0001 21.8555 19.0001 21.8615 19.0001 21.8675C19.0001 21.8735 19.0001 21.8795 19.0001 21.8855C19.0001 21.8916 19.0001 21.8976 19.0001 21.9037C19.0001 21.9098 19.0001 21.9159 19.0001 21.922C19.0001 21.9282 19.0001 21.9343 19.0001 21.9405C19.0001 21.9466 19.0001 21.9528 19.0001 21.959C19.0001 21.9652 19.0001 21.9714 19.0001 21.9777C19.0001 21.9839 19.0001 21.9902 19.0001 21.9964C19.0001 22.0027 19.0001 22.009 19.0001 22.0153C19.0001 22.0216 19.0001 22.028 19.0001 22.0343C19.0001 22.0407 19.0001 22.0471 19.0001 22.0535C19.0001 22.0599 19.0001 22.0663 19.0001 22.0727C19.0001 22.0792 19.0001 22.0856 19.0001 22.0921C19.0001 22.0986 19.0001 22.1051 19.0001 22.1116C19.0001 22.1181 19.0001 22.1246 19.0001 22.1312C19.0001 22.1378 19.0001 22.1443 19.0001 22.1509C19.0001 22.1575 19.0001 22.1642 19.0001 22.1708C19.0001 22.1774 19.0001 22.1841 19.0001 22.1908C19.0001 22.1975 19.0001 22.2042 19.0001 22.2109C19.0001 22.2176 19.0001 22.2243 19.0001 22.2311C19.0001 22.2379 19.0001 22.2446 19.0001 22.2514C19.0001 22.2582 19.0001 22.2651 19.0001 22.2719C19.0001 22.2788 19.0001 22.2856 19.0001 22.2925C19.0001 22.2994 19.0001 22.3063 19.0001 22.3132C19.0001 22.3202 19.0001 22.3271 19.0001 22.3341C19.0001 22.341 19.0001 22.348 19.0001 22.355C19.0001 22.362 19.0001 22.3691 19.0001 22.3761C19.0001 22.3832 19.0001 22.3902 19.0001 22.3973C19.0001 22.4044 19.0001 22.4115 19.0001 22.4187C19.0001 22.4258 19.0001 22.433 19.0001 22.4402C19.0001 22.4473 19.0001 22.4545 19.0001 22.4617C19.0001 22.469 19.0001 22.4762 19.0001 22.4835C19.0001 22.4907 19.0001 22.498 19.0001 22.5053C19.0001 22.5126 19.0001 22.5199 19.0001 22.5273C19.0001 22.5346 19.0001 22.542 19.0001 22.5494C19.0001 22.5568 19.0001 22.5642 19.0001 22.5716C19.0001 22.5791 19.0001 22.5865 19.0001 22.594C19.0001 22.6015 19.0001 22.609 19.0001 22.6165C19.0001 22.624 19.0001 22.6316 19.0001 22.6391C19.0001 22.6467 19.0001 22.6543 19.0001 22.6619C19.0001 22.6695 19.0001 22.6771 19.0001 22.6847C19.0001 22.6924 19.0001 22.7001 19.0001 22.7078C19.0001 22.7155 19.0001 22.7232 19.0001 22.7309C19.0001 22.7386 19.0001 22.7464 19.0001 22.7542C19.0001 22.762 19.0001 22.7698 19.0001 22.7776C19.0001 22.7854 19.0001 22.7933 19.0001 22.8011C19.0001 22.809 19.0001 22.8169 19.0001 22.8248C19.0001 22.8327 19.0001 22.8407 19.0001 22.8486C19.0001 22.8566 19.0001 22.8645 19.0001 22.8726C19.0001 22.8806 19.0001 22.8886 19.0001 22.8966C19.0001 22.9047 19.0001 22.9127 19.0001 22.9208C19.0001 22.9289 19.0001 22.937 19.0001 22.9452C19.0001 22.9533 19.0001 22.9615 19.0001 22.9696C19.0001 22.9778 19.0001 22.986 19.0001 22.9943C19.0001 23.0025 19.0001 23.0107 19.0001 23.019C19.0001 23.0273 19.0001 23.0356 19.0001 23.0439C19.0001 23.0522 19.0001 23.0605 19.0001 23.0689C19.0001 23.0773 19.0001 23.0857 19.0001 23.0941C19.0001 23.1025 19.0001 23.1109 19.0001 23.1194C19.0001 23.1278 19.0001 23.1363 19.0001 23.1448C19.0001 23.1533 19.0001 23.1618 19.0001 23.1704C19.0001 23.1789 19.0001 23.1875 19.0001 23.1961C19.0001 23.2047 19.0001 23.2133 19.0001 23.2219C19.0001 23.2305 19.0001 23.2392 19.0001 23.2479C19.0001 23.2566 19.0001 23.2653 19.0001 23.274C19.0001 23.2827 19.0001 23.2915 19.0001 23.3003C19.0001 23.3091 19.0001 23.3179 19.0001 23.3267C19.0001 23.3355 19.0001 23.3444 19.0001 23.3532C19.0001 23.3621 19.0001 23.371 19.0001 23.3799C19.0001 23.3888 19.0001 23.3978 19.0001 23.4067C19.0001 23.4157 19.0001 23.4247 19.0001 23.4337C19.0001 23.4427 19.0001 23.4518 19.0001 23.4608C19.0001 23.4699 19.0001 23.479 19.0001 23.4881C19.0001 23.4972 19.0001 23.5063 19.0001 23.5155C19.0001 23.5246 19.0001 23.5338 19.0001 23.543C19.0001 23.5522 19.0001 23.5614 19.0001 23.5707C19.0001 23.5799 19.0001 23.5892 19.0001 23.5985C19.0001 23.6078 19.0001 23.6171 19.0001 23.6265C19.0001 23.6358 19.0001 23.6452 19.0001 23.6546C19.0001 23.664 19.0001 23.6734 19.0001 23.6828C19.0001 23.6923 19.0001 23.7018 19.0001 23.7112C19.0001 23.7207 19.0001 23.7303 19.0001 23.7398C19.0001 23.7493 19.0001 23.7589 19.0001 23.7685C19.0001 23.7781 19.0001 23.7877 19.0001 23.7973C19.0001 23.807 19.0001 23.8166 19.0001 23.8263C19.0001 23.836 19.0001 23.8457 19.0001 23.8555C19.0001 23.8652 19.0001 23.875 19.0001 23.8847C19.0001 23.8945 19.0001 23.9043 19.0001 23.9142C19.0001 23.924 19.0001 23.9339 19.0001 23.9438C19.0001 23.9536 19.0001 23.9635 19.0001 23.9735C19.0001 23.9834 19.0001 23.9934 19.0001 24.0034C19.0001 24.0133 19.0001 24.0233 19.0001 24.0334C19.0001 24.0434 19.0001 24.0535 19.0001 24.0636C19.0001 24.0736 19.0001 24.0838 19.0001 24.0939C19.0001 24.104 19.0001 24.1142 19.0001 24.1244C19.0001 24.1345 19.0001 24.1448 19.0001 24.155C19.0001 24.1652 19.0001 24.1755 19.0001 24.1858C19.0001 24.1961 19.0001 24.2064 19.0001 24.2167C19.0001 24.227 19.0001 24.2374 19.0001 24.2478C19.0001 24.2582 19.0001 24.2686 19.0001 24.279C19.0001 24.2895 19.0001 24.2999 19.0001 24.3104C19.0001 24.3209 19.0001 24.3314 19.0001 24.3419C19.0001 24.3525 19.0001 24.363 19.0001 24.3736C19.0001 24.3842 19.0001 24.3948 19.0001 24.4055C19.0001 24.4161 19.0001 24.4268 19.0001 24.4375C19.0001 24.4482 19.0001 24.4589 19.0001 24.4696C19.0001 24.4804 19.0001 24.4912 19.0001 24.502C19.0001 24.5128 19.0001 24.5236 19.0001 24.5344C19.0001 24.5453 19.0001 24.5561 19.0001 24.567C19.0001 24.5779 19.0001 24.5889 19.0001 24.5998C19.0001 24.6108 19.0001 24.6218 19.0001 24.6328C19.0001 24.6438 19.0001 24.6548 19.0001 24.6659C19.0001 24.6769 19.0001 24.688 19.0001 24.6991C19.0001 24.7102 19.0001 24.7213 19.0001 24.7325C19.0001 24.7437 19.0001 24.7549 19.0001 24.7661C19.0001 24.7773 19.0001 24.7885 19.0001 24.7998C19.0001 24.8111 19.0001 24.8224 19.0001 24.8337C19.0001 24.845 19.0001 24.8563 19.0001 24.8677C19.0001 24.8791 19.0001 24.8905 19.0001 24.9019C19.0001 24.9133 19.0001 24.9248 19.0001 24.9363C19.0001 24.9478 19.0001 24.9593 19.0001 24.9708C19.0001 24.9823 19.0001 24.9939 19.0001 25.0055C19.0001 25.0171 19.0001 25.0287 19.0001 25.0403C19.0001 25.052 19.0001 25.0636 19.0001 25.0753C19.0001 25.087 19.0001 25.0987 19.0001 25.1105C19.0001 25.1222 19.0001 25.134 19.0001 25.1458C19.0001 25.1576 19.0001 25.1695 19.0001 25.1813C19.0001 25.1932 19.0001 25.2051 19.0001 25.217C19.0001 25.2289 19.0001 25.2408 19.0001 25.2528C19.0001 25.2647 19.0001 25.2767 19.0001 25.2888C19.0001 25.3008 19.0001 25.3128 19.0001 25.3249C19.0001 25.337 19.0001 25.3491 19.0001 25.3612C19.0001 25.3733 19.0001 25.3855 19.0001 25.3977C19.0001 25.4099 19.0001 25.4221 19.0001 25.4343C19.0001 25.4466 19.0001 25.4588 19.0001 25.4711C19.0001 25.4834 19.0001 25.4957 19.0001 25.5081C19.0001 25.5204 19.0001 25.5328 19.0001 25.5452C19.0001 25.5576 19.0001 25.5701 19.0001 25.5825C19.0001 25.595 19.0001 25.6075 19.0001 25.62C19.0001 25.6325 19.0001 25.645 19.0001 25.6576C19.0001 25.6702 19.0001 25.6828 19.0001 25.6954C19.0001 25.7081 19.0001 25.7207 19.0001 25.7334C19.0001 25.7461 19.0001 25.7588 19.0001 25.7715C19.0001 25.7843 19.0001 25.797 19.0001 25.8098C19.0001 25.8226 19.0001 25.8355 19.0001 25.8483C19.0001 25.8612 19.0001 25.8741 19.0001 25.887C19.0001 25.8999 19.0001 25.9128 19.0001 25.9258C19.0001 25.9387 19.0001 25.9517 19.0001 25.9648C19.0001 25.9778 19.0001 25.9908 19.0001 26.0039C19.0001 26.017 19.0001 26.0301 19.0001 26.0433C19.0001 26.0564 19.0001 26.0696 19.0001 26.0828C19.0001 26.0959 19.0001 26.1092 19.0001 26.1224C19.0001 26.1357 19.0001 26.149 19.0001 26.1623C19.0001 26.1756 19.0001 26.1889 19.0001 26.2023C19.0001 26.2156 19.0001 26.229 19.0001 26.2425C19.0001 26.2559 19.0001 26.2693 19.0001 26.2828C19.0001 26.2963 19.0001 26.3098 19.0001 26.3234C19.0001 26.3369 19.0001 26.3505 19.0001 26.3641C19.0001 26.3777 19.0001 26.3913 19.0001 26.405C19.0001 26.4186 19.0001 26.4323 19.0001 26.446C19.0001 26.4597 19.0001 26.4735 19.0001 26.4873C19.0001 26.501 19.0001 26.5148 19.0001 26.5287C19.0001 26.5425 19.0001 26.5564 19.0001 26.5702C19.0001 26.5841 19.0001 26.5981 19.0001 26.612C19.0001 26.626 19.0001 26.6399 19.0001 26.6539C19.0001 26.668 19.0001 26.682 19.0001 26.6961C19.0001 26.7101 19.0001 26.7242 19.0001 26.7383C19.0001 26.7525 19.0001 26.7666 19.0001 26.7808C19.0001 26.795 19.0001 26.8092 19.0001 26.8235C19.0001 26.8377 19.0001 26.852 19.0001 26.8663C19.0001 26.8806 19.0001 26.8949 19.0001 26.9093C19.0001 26.9237 19.0001 26.9381 19.0001 26.9525C19.0001 26.9669 19.0001 26.9814 19.0001 26.9958C19.0001 27.0103 19.0001 27.0248 19.0001 27.0394C19.0001 27.0539 19.0001 27.0685 19.0001 27.0831C19.0001 27.0977 19.0001 27.1124 19.0001 27.127C19.0001 27.1417 19.0001 27.1564 19.0001 27.1711C19.0001 27.1858 19.0001 27.2006 19.0001 27.2154C19.0001 27.2302 19.0001 27.245 19.0001 27.2598C19.0001 27.2747 19.0001 27.2895 19.0001 27.3044C19.0001 27.3194 19.0001 27.3343 19.0001 27.3493C19.0001 27.3642 19.0001 27.3792 19.0001 27.3943C19.0001 27.4093 19.0001 27.4243 19.0001 27.4394C19.0001 27.4545 19.0001 27.4696 19.0001 27.4848C19.0001 27.5 19.0001 27.5151 19.0001 27.5303C19.0001 27.5456 19.0001 27.5608 19.0001 27.5761C19.0001 27.5914 19.0001 27.6067 19.0001 27.622C19.0001 27.6373 19.0001 27.6527 19.0001 27.6681C19.0001 27.6835 19.0001 27.6989 19.0001 27.7144C19.0001 27.7298 19.0001 27.7453 19.0001 27.7609C19.0001 27.7764 19.0001 27.7919 19.0001 27.8075C19.0001 27.8231 19.0001 27.8387 19.0001 27.8544C19.0001 27.87 19.0001 27.8857 19.0001 27.9014C19.0001 27.9171 19.0001 27.9328 19.0001 27.9486C19.0001 27.9644 19.0001 27.9802 19.0001 27.996C19.0001 28.0119 19.0001 28.0277 19.0001 28.0436C19.0001 28.0595 19.0001 28.0754 19.0001 28.0914C19.0001 28.1074 19.0001 28.1234 19.0001 28.1394C19.0001 28.1554 19.0001 28.1715 19.0001 28.1875C19.0001 28.2036 19.0001 28.2197 19.0001 28.2359C19.0001 28.252 19.0001 28.2682 19.0001 28.2844C19.0001 28.3006 19.0001 28.3169 19.0001 28.3332H21.0001C21.0001 28.3169 21.0001 28.3006 21.0001 28.2844C21.0001 28.2682 21.0001 28.252 21.0001 28.2359C21.0001 28.2197 21.0001 28.2036 21.0001 28.1875C21.0001 28.1715 21.0001 28.1554 21.0001 28.1394C21.0001 28.1234 21.0001 28.1074 21.0001 28.0914C21.0001 28.0754 21.0001 28.0595 21.0001 28.0436C21.0001 28.0277 21.0001 28.0119 21.0001 27.996C21.0001 27.9802 21.0001 27.9644 21.0001 27.9486C21.0001 27.9328 21.0001 27.9171 21.0001 27.9014C21.0001 27.8857 21.0001 27.87 21.0001 27.8544C21.0001 27.8387 21.0001 27.8231 21.0001 27.8075C21.0001 27.7919 21.0001 27.7764 21.0001 27.7609C21.0001 27.7453 21.0001 27.7298 21.0001 27.7144C21.0001 27.6989 21.0001 27.6835 21.0001 27.6681C21.0001 27.6527 21.0001 27.6373 21.0001 27.622C21.0001 27.6067 21.0001 27.5914 21.0001 27.5761C21.0001 27.5608 21.0001 27.5456 21.0001 27.5303C21.0001 27.5151 21.0001 27.5 21.0001 27.4848C21.0001 27.4696 21.0001 27.4545 21.0001 27.4394C21.0001 27.4243 21.0001 27.4093 21.0001 27.3943C21.0001 27.3792 21.0001 27.3642 21.0001 27.3493C21.0001 27.3343 21.0001 27.3194 21.0001 27.3044C21.0001 27.2895 21.0001 27.2747 21.0001 27.2598C21.0001 27.245 21.0001 27.2302 21.0001 27.2154C21.0001 27.2006 21.0001 27.1858 21.0001 27.1711C21.0001 27.1564 21.0001 27.1417 21.0001 27.127C21.0001 27.1124 21.0001 27.0977 21.0001 27.0831C21.0001 27.0685 21.0001 27.0539 21.0001 27.0394C21.0001 27.0248 21.0001 27.0103 21.0001 26.9958C21.0001 26.9814 21.0001 26.9669 21.0001 26.9525C21.0001 26.9381 21.0001 26.9237 21.0001 26.9093C21.0001 26.8949 21.0001 26.8806 21.0001 26.8663C21.0001 26.852 21.0001 26.8377 21.0001 26.8235C21.0001 26.8092 21.0001 26.795 21.0001 26.7808C21.0001 26.7666 21.0001 26.7525 21.0001 26.7383C21.0001 26.7242 21.0001 26.7101 21.0001 26.6961C21.0001 26.682 21.0001 26.668 21.0001 26.6539C21.0001 26.6399 21.0001 26.626 21.0001 26.612C21.0001 26.5981 21.0001 26.5841 21.0001 26.5702C21.0001 26.5564 21.0001 26.5425 21.0001 26.5287C21.0001 26.5148 21.0001 26.501 21.0001 26.4873C21.0001 26.4735 21.0001 26.4597 21.0001 26.446C21.0001 26.4323 21.0001 26.4186 21.0001 26.405C21.0001 26.3913 21.0001 26.3777 21.0001 26.3641C21.0001 26.3505 21.0001 26.3369 21.0001 26.3234C21.0001 26.3098 21.0001 26.2963 21.0001 26.2828C21.0001 26.2693 21.0001 26.2559 21.0001 26.2425C21.0001 26.229 21.0001 26.2156 21.0001 26.2023C21.0001 26.1889 21.0001 26.1756 21.0001 26.1623C21.0001 26.149 21.0001 26.1357 21.0001 26.1224C21.0001 26.1092 21.0001 26.0959 21.0001 26.0828C21.0001 26.0696 21.0001 26.0564 21.0001 26.0433C21.0001 26.0301 21.0001 26.017 21.0001 26.0039C21.0001 25.9908 21.0001 25.9778 21.0001 25.9648C21.0001 25.9517 21.0001 25.9387 21.0001 25.9258C21.0001 25.9128 21.0001 25.8999 21.0001 25.887C21.0001 25.8741 21.0001 25.8612 21.0001 25.8483C21.0001 25.8355 21.0001 25.8226 21.0001 25.8098C21.0001 25.797 21.0001 25.7843 21.0001 25.7715C21.0001 25.7588 21.0001 25.7461 21.0001 25.7334C21.0001 25.7207 21.0001 25.7081 21.0001 25.6954C21.0001 25.6828 21.0001 25.6702 21.0001 25.6576C21.0001 25.645 21.0001 25.6325 21.0001 25.62C21.0001 25.6075 21.0001 25.595 21.0001 25.5825C21.0001 25.5701 21.0001 25.5576 21.0001 25.5452C21.0001 25.5328 21.0001 25.5204 21.0001 25.5081C21.0001 25.4957 21.0001 25.4834 21.0001 25.4711C21.0001 25.4588 21.0001 25.4466 21.0001 25.4343C21.0001 25.4221 21.0001 25.4099 21.0001 25.3977C21.0001 25.3855 21.0001 25.3733 21.0001 25.3612C21.0001 25.3491 21.0001 25.337 21.0001 25.3249C21.0001 25.3128 21.0001 25.3008 21.0001 25.2888C21.0001 25.2767 21.0001 25.2647 21.0001 25.2528C21.0001 25.2408 21.0001 25.2289 21.0001 25.217C21.0001 25.2051 21.0001 25.1932 21.0001 25.1813C21.0001 25.1695 21.0001 25.1576 21.0001 25.1458C21.0001 25.134 21.0001 25.1222 21.0001 25.1105C21.0001 25.0987 21.0001 25.087 21.0001 25.0753C21.0001 25.0636 21.0001 25.052 21.0001 25.0403C21.0001 25.0287 21.0001 25.0171 21.0001 25.0055C21.0001 24.9939 21.0001 24.9823 21.0001 24.9708C21.0001 24.9593 21.0001 24.9478 21.0001 24.9363C21.0001 24.9248 21.0001 24.9133 21.0001 24.9019C21.0001 24.8905 21.0001 24.8791 21.0001 24.8677C21.0001 24.8563 21.0001 24.845 21.0001 24.8337C21.0001 24.8224 21.0001 24.8111 21.0001 24.7998C21.0001 24.7885 21.0001 24.7773 21.0001 24.7661C21.0001 24.7549 21.0001 24.7437 21.0001 24.7325C21.0001 24.7213 21.0001 24.7102 21.0001 24.6991C21.0001 24.688 21.0001 24.6769 21.0001 24.6659C21.0001 24.6548 21.0001 24.6438 21.0001 24.6328C21.0001 24.6218 21.0001 24.6108 21.0001 24.5998C21.0001 24.5889 21.0001 24.5779 21.0001 24.567C21.0001 24.5561 21.0001 24.5453 21.0001 24.5344C21.0001 24.5236 21.0001 24.5128 21.0001 24.502C21.0001 24.4912 21.0001 24.4804 21.0001 24.4696C21.0001 24.4589 21.0001 24.4482 21.0001 24.4375C21.0001 24.4268 21.0001 24.4161 21.0001 24.4055C21.0001 24.3948 21.0001 24.3842 21.0001 24.3736C21.0001 24.363 21.0001 24.3525 21.0001 24.3419C21.0001 24.3314 21.0001 24.3209 21.0001 24.3104C21.0001 24.2999 21.0001 24.2895 21.0001 24.279C21.0001 24.2686 21.0001 24.2582 21.0001 24.2478C21.0001 24.2374 21.0001 24.227 21.0001 24.2167C21.0001 24.2064 21.0001 24.1961 21.0001 24.1858C21.0001 24.1755 21.0001 24.1652 21.0001 24.155C21.0001 24.1448 21.0001 24.1345 21.0001 24.1244C21.0001 24.1142 21.0001 24.104 21.0001 24.0939C21.0001 24.0838 21.0001 24.0736 21.0001 24.0636C21.0001 24.0535 21.0001 24.0434 21.0001 24.0334C21.0001 24.0233 21.0001 24.0133 21.0001 24.0034C21.0001 23.9934 21.0001 23.9834 21.0001 23.9735C21.0001 23.9635 21.0001 23.9536 21.0001 23.9438C21.0001 23.9339 21.0001 23.924 21.0001 23.9142C21.0001 23.9043 21.0001 23.8945 21.0001 23.8847C21.0001 23.875 21.0001 23.8652 21.0001 23.8555C21.0001 23.8457 21.0001 23.836 21.0001 23.8263C21.0001 23.8166 21.0001 23.807 21.0001 23.7973C21.0001 23.7877 21.0001 23.7781 21.0001 23.7685C21.0001 23.7589 21.0001 23.7493 21.0001 23.7398C21.0001 23.7303 21.0001 23.7207 21.0001 23.7112C21.0001 23.7018 21.0001 23.6923 21.0001 23.6828C21.0001 23.6734 21.0001 23.664 21.0001 23.6546C21.0001 23.6452 21.0001 23.6358 21.0001 23.6265C21.0001 23.6171 21.0001 23.6078 21.0001 23.5985C21.0001 23.5892 21.0001 23.5799 21.0001 23.5707C21.0001 23.5614 21.0001 23.5522 21.0001 23.543C21.0001 23.5338 21.0001 23.5246 21.0001 23.5155C21.0001 23.5063 21.0001 23.4972 21.0001 23.4881C21.0001 23.479 21.0001 23.4699 21.0001 23.4608C21.0001 23.4518 21.0001 23.4427 21.0001 23.4337C21.0001 23.4247 21.0001 23.4157 21.0001 23.4067C21.0001 23.3978 21.0001 23.3888 21.0001 23.3799C21.0001 23.371 21.0001 23.3621 21.0001 23.3532C21.0001 23.3444 21.0001 23.3355 21.0001 23.3267C21.0001 23.3179 21.0001 23.3091 21.0001 23.3003C21.0001 23.2915 21.0001 23.2827 21.0001 23.274C21.0001 23.2653 21.0001 23.2566 21.0001 23.2479C21.0001 23.2392 21.0001 23.2305 21.0001 23.2219C21.0001 23.2133 21.0001 23.2047 21.0001 23.1961C21.0001 23.1875 21.0001 23.1789 21.0001 23.1704C21.0001 23.1618 21.0001 23.1533 21.0001 23.1448C21.0001 23.1363 21.0001 23.1278 21.0001 23.1194C21.0001 23.1109 21.0001 23.1025 21.0001 23.0941C21.0001 23.0857 21.0001 23.0773 21.0001 23.0689C21.0001 23.0605 21.0001 23.0522 21.0001 23.0439C21.0001 23.0356 21.0001 23.0273 21.0001 23.019C21.0001 23.0107 21.0001 23.0025 21.0001 22.9943C21.0001 22.986 21.0001 22.9778 21.0001 22.9696C21.0001 22.9615 21.0001 22.9533 21.0001 22.9452C21.0001 22.937 21.0001 22.9289 21.0001 22.9208C21.0001 22.9127 21.0001 22.9047 21.0001 22.8966C21.0001 22.8886 21.0001 22.8806 21.0001 22.8726C21.0001 22.8645 21.0001 22.8566 21.0001 22.8486C21.0001 22.8407 21.0001 22.8327 21.0001 22.8248C21.0001 22.8169 21.0001 22.809 21.0001 22.8011C21.0001 22.7933 21.0001 22.7854 21.0001 22.7776C21.0001 22.7698 21.0001 22.762 21.0001 22.7542C21.0001 22.7464 21.0001 22.7386 21.0001 22.7309C21.0001 22.7232 21.0001 22.7155 21.0001 22.7078C21.0001 22.7001 21.0001 22.6924 21.0001 22.6847C21.0001 22.6771 21.0001 22.6695 21.0001 22.6619C21.0001 22.6543 21.0001 22.6467 21.0001 22.6391C21.0001 22.6316 21.0001 22.624 21.0001 22.6165C21.0001 22.609 21.0001 22.6015 21.0001 22.594C21.0001 22.5865 21.0001 22.5791 21.0001 22.5716C21.0001 22.5642 21.0001 22.5568 21.0001 22.5494C21.0001 22.542 21.0001 22.5346 21.0001 22.5273C21.0001 22.5199 21.0001 22.5126 21.0001 22.5053C21.0001 22.498 21.0001 22.4907 21.0001 22.4835C21.0001 22.4762 21.0001 22.469 21.0001 22.4617C21.0001 22.4545 21.0001 22.4473 21.0001 22.4402C21.0001 22.433 21.0001 22.4258 21.0001 22.4187C21.0001 22.4115 21.0001 22.4044 21.0001 22.3973C21.0001 22.3902 21.0001 22.3832 21.0001 22.3761C21.0001 22.3691 21.0001 22.362 21.0001 22.355C21.0001 22.348 21.0001 22.341 21.0001 22.3341C21.0001 22.3271 21.0001 22.3202 21.0001 22.3132C21.0001 22.3063 21.0001 22.2994 21.0001 22.2925C21.0001 22.2856 21.0001 22.2788 21.0001 22.2719C21.0001 22.2651 21.0001 22.2582 21.0001 22.2514C21.0001 22.2446 21.0001 22.2379 21.0001 22.2311C21.0001 22.2243 21.0001 22.2176 21.0001 22.2109C21.0001 22.2042 21.0001 22.1975 21.0001 22.1908C21.0001 22.1841 21.0001 22.1774 21.0001 22.1708C21.0001 22.1642 21.0001 22.1575 21.0001 22.1509C21.0001 22.1443 21.0001 22.1378 21.0001 22.1312C21.0001 22.1246 21.0001 22.1181 21.0001 22.1116C21.0001 22.1051 21.0001 22.0986 21.0001 22.0921C21.0001 22.0856 21.0001 22.0792 21.0001 22.0727C21.0001 22.0663 21.0001 22.0599 21.0001 22.0535C21.0001 22.0471 21.0001 22.0407 21.0001 22.0343C21.0001 22.028 21.0001 22.0216 21.0001 22.0153C21.0001 22.009 21.0001 22.0027 21.0001 21.9964C21.0001 21.9902 21.0001 21.9839 21.0001 21.9777C21.0001 21.9714 21.0001 21.9652 21.0001 21.959C21.0001 21.9528 21.0001 21.9466 21.0001 21.9405C21.0001 21.9343 21.0001 21.9282 21.0001 21.922C21.0001 21.9159 21.0001 21.9098 21.0001 21.9037C21.0001 21.8976 21.0001 21.8916 21.0001 21.8855C21.0001 21.8795 21.0001 21.8735 21.0001 21.8675C21.0001 21.8615 21.0001 21.8555 21.0001 21.8495C21.0001 21.8435 21.0001 21.8376 21.0001 21.8317C21.0001 21.8257 21.0001 21.8198 21.0001 21.8139C21.0001 21.808 21.0001 21.8022 21.0001 21.7963C21.0001 21.7905 21.0001 21.7846 21.0001 21.7788C21.0001 21.773 21.0001 21.7672 21.0001 21.7614C21.0001 21.7557 21.0001 21.7499 21.0001 21.7442C21.0001 21.7384 21.0001 21.7327 21.0001 21.727C21.0001 21.7213 21.0001 21.7156 21.0001 21.71C21.0001 21.7043 21.0001 21.6987 21.0001 21.693C21.0001 21.6874 21.0001 21.6818 21.0001 21.6762C21.0001 21.6706 21.0001 21.6651 21.0001 21.6595C21.0001 21.654 21.0001 21.6484 21.0001 21.6429C21.0001 21.6374 21.0001 21.6319 21.0001 21.6264C21.0001 21.621 21.0001 21.6155 21.0001 21.6101C21.0001 21.6046 21.0001 21.5992 21.0001 21.5938C21.0001 21.5884 21.0001 21.583 21.0001 21.5776C21.0001 21.5723 21.0001 21.5669 21.0001 21.5616C21.0001 21.5563 21.0001 21.5509 21.0001 21.5457C21.0001 21.5404 21.0001 21.5351 21.0001 21.5298C21.0001 21.5246 21.0001 21.5193 21.0001 21.5141C21.0001 21.5089 21.0001 21.5037 21.0001 21.4985C21.0001 21.4933 21.0001 21.4881 21.0001 21.483C21.0001 21.4778 21.0001 21.4727 21.0001 21.4676C21.0001 21.4625 21.0001 21.4574 21.0001 21.4523C21.0001 21.4472 21.0001 21.4422 21.0001 21.4371C21.0001 21.4321 21.0001 21.4271 21.0001 21.422C21.0001 21.417 21.0001 21.412 21.0001 21.4071C21.0001 21.4021 21.0001 21.3971 21.0001 21.3922C21.0001 21.3873 21.0001 21.3824 21.0001 21.3775C21.0001 21.3725 21.0001 21.3677 21.0001 21.3628C21.0001 21.3579 21.0001 21.3531 21.0001 21.3482C21.0001 21.3434 21.0001 21.3386 21.0001 21.3338C21.0001 21.329 21.0001 21.3242 21.0001 21.3195C21.0001 21.3147 21.0001 21.3099 21.0001 21.3052C21.0001 21.3005 21.0001 21.2958 21.0001 21.2911C21.0001 21.2864 21.0001 21.2817 21.0001 21.277C21.0001 21.2724 21.0001 21.2677 21.0001 21.2631C21.0001 21.2585 21.0001 21.2539 21.0001 21.2493C21.0001 21.2447 21.0001 21.2401 21.0001 21.2355C21.0001 21.231 21.0001 21.2264 21.0001 21.2219C21.0001 21.2174 21.0001 21.2129 21.0001 21.2084C21.0001 21.2039 21.0001 21.1994 21.0001 21.195C21.0001 21.1905 21.0001 21.1861 21.0001 21.1816C21.0001 21.1772 21.0001 21.1728 21.0001 21.1684C21.0001 21.164 21.0001 21.1596 21.0001 21.1553C21.0001 21.1509 21.0001 21.1466 21.0001 21.1422C21.0001 21.1379 21.0001 21.1336 21.0001 21.1293C21.0001 21.125 21.0001 21.1207 21.0001 21.1165C21.0001 21.1122 21.0001 21.108 21.0001 21.1037C21.0001 21.0995 21.0001 21.0953 21.0001 21.0911C21.0001 21.0869 21.0001 21.0827 21.0001 21.0786C21.0001 21.0744 21.0001 21.0702 21.0001 21.0661C21.0001 21.062 21.0001 21.0579 21.0001 21.0538C21.0001 21.0497 21.0001 21.0456 21.0001 21.0415C21.0001 21.0374 21.0001 21.0334 21.0001 21.0293C21.0001 21.0253 21.0001 21.0213 21.0001 21.0173C21.0001 21.0133 21.0001 21.0093 21.0001 21.0053C21.0001 21.0013 21.0001 20.9974 21.0001 20.9934C21.0001 20.9895 21.0001 20.9856 21.0001 20.9817C21.0001 20.9777 21.0001 20.9738 21.0001 20.97C21.0001 20.9661 21.0001 20.9622 21.0001 20.9584C21.0001 20.9545 21.0001 20.9507 21.0001 20.9469C21.0001 20.943 21.0001 20.9392 21.0001 20.9355C21.0001 20.9317 21.0001 20.9279 21.0001 20.9241C21.0001 20.9204 21.0001 20.9166 21.0001 20.9129C21.0001 20.9092 21.0001 20.9055 21.0001 20.9018C21.0001 20.8981 21.0001 20.8944 21.0001 20.8907C21.0001 20.8871 21.0001 20.8834 21.0001 20.8798C21.0001 20.8761 21.0001 20.8725 21.0001 20.8689C21.0001 20.8653 21.0001 20.8617 21.0001 20.8581C21.0001 20.8546 21.0001 20.851 21.0001 20.8475C21.0001 20.8439 21.0001 20.8404 21.0001 20.8369C21.0001 20.8333 21.0001 20.8298 21.0001 20.8264C21.0001 20.8229 21.0001 20.8194 21.0001 20.8159C21.0001 20.8125 21.0001 20.809 21.0001 20.8056C21.0001 20.8022 21.0001 20.7988 21.0001 20.7954C21.0001 20.792 21.0001 20.7886 21.0001 20.7852C21.0001 20.7818 21.0001 20.7785 21.0001 20.7751C21.0001 20.7718 21.0001 20.7685 21.0001 20.7652C21.0001 20.7618 21.0001 20.7585 21.0001 20.7553C21.0001 20.752 21.0001 20.7487 21.0001 20.7455C21.0001 20.7422 21.0001 20.739 21.0001 20.7357C21.0001 20.7325 21.0001 20.7293 21.0001 20.7261C21.0001 20.7229 21.0001 20.7197 21.0001 20.7165C21.0001 20.7134 21.0001 20.7102 21.0001 20.7071C21.0001 20.7039 21.0001 20.7008 21.0001 20.6977C21.0001 20.6946 21.0001 20.6915 21.0001 20.6884C21.0001 20.6853 21.0001 20.6822 21.0001 20.6791C21.0001 20.6761 21.0001 20.673 21.0001 20.67C21.0001 20.667 21.0001 20.664 21.0001 20.661C21.0001 20.6579 21.0001 20.655 21.0001 20.652C21.0001 20.649 21.0001 20.646 21.0001 20.6431C21.0001 20.6401 21.0001 20.6372 21.0001 20.6343C21.0001 20.6313 21.0001 20.6284 21.0001 20.6255C21.0001 20.6226 21.0001 20.6198 21.0001 20.6169C21.0001 20.614 21.0001 20.6112 21.0001 20.6083C21.0001 20.6055 21.0001 20.6026 21.0001 20.5998C21.0001 20.597 21.0001 20.5942 21.0001 20.5914C21.0001 20.5886 21.0001 20.5859 21.0001 20.5831C21.0001 20.5803 21.0001 20.5776 21.0001 20.5748C21.0001 20.5721 21.0001 20.5694 21.0001 20.5667C21.0001 20.5639 21.0001 20.5612 21.0001 20.5586C21.0001 20.5559 21.0001 20.5532 21.0001 20.5505C21.0001 20.5479 21.0001 20.5452 21.0001 20.5426C21.0001 20.54 21.0001 20.5373 21.0001 20.5347C21.0001 20.5321 21.0001 20.5295 21.0001 20.5269C21.0001 20.5244 21.0001 20.5218 21.0001 20.5192C21.0001 20.5167 21.0001 20.5141 21.0001 20.5116C21.0001 20.5091 21.0001 20.5065 21.0001 20.504C21.0001 20.5015 21.0001 20.499 21.0001 20.4965C21.0001 20.4941 21.0001 20.4916 21.0001 20.4891C21.0001 20.4867 21.0001 20.4842 21.0001 20.4818C21.0001 20.4794 21.0001 20.4769 21.0001 20.4745C21.0001 20.4721 21.0001 20.4697 21.0001 20.4673C21.0001 20.4649 21.0001 20.4626 21.0001 20.4602C21.0001 20.4579 21.0001 20.4555 21.0001 20.4532C21.0001 20.4508 21.0001 20.4485 21.0001 20.4462C21.0001 20.4439 21.0001 20.4416 21.0001 20.4393C21.0001 20.437 21.0001 20.4347 21.0001 20.4325C21.0001 20.4302 21.0001 20.4279 21.0001 20.4257C21.0001 20.4235 21.0001 20.4212 21.0001 20.419C21.0001 20.4168 21.0001 20.4146 21.0001 20.4124C21.0001 20.4102 21.0001 20.408 21.0001 20.4058C21.0001 20.4037 21.0001 20.4015 21.0001 20.3994C21.0001 20.3972 21.0001 20.3951 21.0001 20.393C21.0001 20.3908 21.0001 20.3887 21.0001 20.3866C21.0001 20.3845 21.0001 20.3824 21.0001 20.3803C21.0001 20.3783 21.0001 20.3762 21.0001 20.3741C21.0001 20.3721 21.0001 20.37 21.0001 20.368C21.0001 20.366 21.0001 20.3639 21.0001 20.3619C21.0001 20.3599 21.0001 20.3579 21.0001 20.3559C21.0001 20.3539 21.0001 20.352 21.0001 20.35C21.0001 20.348 21.0001 20.3461 21.0001 20.3441C21.0001 20.3422 21.0001 20.3403 21.0001 20.3383C21.0001 20.3364 21.0001 20.3345 21.0001 20.3326C21.0001 20.3307 21.0001 20.3288 21.0001 20.3269C21.0001 20.325 21.0001 20.3232 21.0001 20.3213C21.0001 20.3195 21.0001 20.3176 21.0001 20.3158C21.0001 20.3139 21.0001 20.3121 21.0001 20.3103C21.0001 20.3085 21.0001 20.3067 21.0001 20.3049C21.0001 20.3031 21.0001 20.3013 21.0001 20.2995C21.0001 20.2978 21.0001 20.296 21.0001 20.2942C21.0001 20.2925 21.0001 20.2907 21.0001 20.289C21.0001 20.2873 21.0001 20.2856 21.0001 20.2838C21.0001 20.2821 21.0001 20.2804 21.0001 20.2787C21.0001 20.2771 21.0001 20.2754 21.0001 20.2737C21.0001 20.272 21.0001 20.2704 21.0001 20.2687C21.0001 20.2671 21.0001 20.2654 21.0001 20.2638C21.0001 20.2622 21.0001 20.2606 21.0001 20.2589C21.0001 20.2573 21.0001 20.2557 21.0001 20.2542C21.0001 20.2526 21.0001 20.251 21.0001 20.2494C21.0001 20.2478 21.0001 20.2463 21.0001 20.2447C21.0001 20.2432 21.0001 20.2416 21.0001 20.2401C21.0001 20.2386 21.0001 20.2371 21.0001 20.2355C21.0001 20.234 21.0001 20.2325 21.0001 20.231C21.0001 20.2296 21.0001 20.2281 21.0001 20.2266C21.0001 20.2251 21.0001 20.2237 21.0001 20.2222C21.0001 20.2208 21.0001 20.2193 21.0001 20.2179C21.0001 20.2164 21.0001 20.215 21.0001 20.2136C21.0001 20.2122 21.0001 20.2108 21.0001 20.2094C21.0001 20.208 21.0001 20.2066 21.0001 20.2052C21.0001 20.2038 21.0001 20.2025 21.0001 20.2011C21.0001 20.1998 21.0001 20.1984 21.0001 20.1971C21.0001 20.1957 21.0001 20.1944 21.0001 20.1931C21.0001 20.1917 21.0001 20.1904 21.0001 20.1891C21.0001 20.1878 21.0001 20.1865 21.0001 20.1852C21.0001 20.1839 21.0001 20.1827 21.0001 20.1814C21.0001 20.1801 21.0001 20.1789 21.0001 20.1776C21.0001 20.1764 21.0001 20.1751 21.0001 20.1739C21.0001 20.1726 21.0001 20.1714 21.0001 20.1702C21.0001 20.169 21.0001 20.1678 21.0001 20.1666C21.0001 20.1654 21.0001 20.1642 21.0001 20.163C21.0001 20.1618 21.0001 20.1607 21.0001 20.1595C21.0001 20.1583 21.0001 20.1572 21.0001 20.156C21.0001 20.1549 21.0001 20.1537 21.0001 20.1526C21.0001 20.1515 21.0001 20.1503 21.0001 20.1492C21.0001 20.1481 21.0001 20.147 21.0001 20.1459C21.0001 20.1448 21.0001 20.1437 21.0001 20.1426C21.0001 20.1416 21.0001 20.1405 21.0001 20.1394C21.0001 20.1384 21.0001 20.1373 21.0001 20.1362C21.0001 20.1352 21.0001 20.1342 21.0001 20.1331C21.0001 20.1321 21.0001 20.1311 21.0001 20.13C21.0001 20.129 21.0001 20.128 21.0001 20.127C21.0001 20.126 21.0001 20.125 21.0001 20.124C21.0001 20.1231 21.0001 20.1221 21.0001 20.1211C21.0001 20.1201 21.0001 20.1192 21.0001 20.1182C21.0001 20.1173 21.0001 20.1163 21.0001 20.1154C21.0001 20.1144 21.0001 20.1135 21.0001 20.1126C21.0001 20.1117 21.0001 20.1107 21.0001 20.1098C21.0001 20.1089 21.0001 20.108 21.0001 20.1071C21.0001 20.1062 21.0001 20.1053 21.0001 20.1045C21.0001 20.1036 21.0001 20.1027 21.0001 20.1018C21.0001 20.101 21.0001 20.1001 21.0001 20.0993C21.0001 20.0984 21.0001 20.0976 21.0001 20.0968C21.0001 20.0959 21.0001 20.0951 21.0001 20.0943C21.0001 20.0934 21.0001 20.0926 21.0001 20.0918C21.0001 20.091 21.0001 20.0902 21.0001 20.0894C21.0001 20.0886 21.0001 20.0878 21.0001 20.0871C21.0001 20.0863 21.0001 20.0855 21.0001 20.0848C21.0001 20.084 21.0001 20.0832 21.0001 20.0825C21.0001 20.0817 21.0001 20.081 21.0001 20.0802C21.0001 20.0795 21.0001 20.0788 21.0001 20.0781C21.0001 20.0773 21.0001 20.0766 21.0001 20.0759C21.0001 20.0752 21.0001 20.0745 21.0001 20.0738C21.0001 20.0731 21.0001 20.0724 21.0001 20.0717C21.0001 20.071 21.0001 20.0703 21.0001 20.0697C21.0001 20.069 21.0001 20.0683 21.0001 20.0677C21.0001 20.067 21.0001 20.0664 21.0001 20.0657C21.0001 20.0651 21.0001 20.0644 21.0001 20.0638C21.0001 20.0632 21.0001 20.0625 21.0001 20.0619C21.0001 20.0613 21.0001 20.0607 21.0001 20.0601C21.0001 20.0595 21.0001 20.0589 21.0001 20.0583C21.0001 20.0577 21.0001 20.0571 21.0001 20.0565C21.0001 20.0559 21.0001 20.0553 21.0001 20.0548C21.0001 20.0542 21.0001 20.0536 21.0001 20.0531C21.0001 20.0525 21.0001 20.052 21.0001 20.0514C21.0001 20.0509 21.0001 20.0503 21.0001 20.0498C21.0001 20.0492 21.0001 20.0487 21.0001 20.0482C21.0001 20.0477 21.0001 20.0471 21.0001 20.0466C21.0001 20.0461 21.0001 20.0456 21.0001 20.0451C21.0001 20.0446 21.0001 20.0441 21.0001 20.0436C21.0001 20.0431 21.0001 20.0426 21.0001 20.0421C21.0001 20.0417 21.0001 20.0412 21.0001 20.0407C21.0001 20.0403 21.0001 20.0398 21.0001 20.0393C21.0001 20.0389 21.0001 20.0384 21.0001 20.038C21.0001 20.0375 21.0001 20.0371 21.0001 20.0366C21.0001 20.0362 21.0001 20.0358 21.0001 20.0353C21.0001 20.0349 21.0001 20.0345 21.0001 20.0341C21.0001 20.0337 21.0001 20.0332 21.0001 20.0328C21.0001 20.0324 21.0001 20.032 21.0001 20.0316C21.0001 20.0312 21.0001 20.0308 21.0001 20.0304C21.0001 20.0301 21.0001 20.0297 21.0001 20.0293C21.0001 20.0289 21.0001 20.0286 21.0001 20.0282C21.0001 20.0278 21.0001 20.0275 21.0001 20.0271C21.0001 20.0267 21.0001 20.0264 21.0001 20.026C21.0001 20.0257 21.0001 20.0253 21.0001 20.025C21.0001 20.0247 21.0001 20.0243 21.0001 20.024C21.0001 20.0237 21.0001 20.0233 21.0001 20.023C21.0001 20.0227 21.0001 20.0224 21.0001 20.0221C21.0001 20.0217 21.0001 20.0214 21.0001 20.0211C21.0001 20.0208 21.0001 20.0205 21.0001 20.0202C21.0001 20.0199 21.0001 20.0196 21.0001 20.0194C21.0001 20.0191 21.0001 20.0188 21.0001 20.0185C21.0001 20.0182 21.0001 20.018 21.0001 20.0177C21.0001 20.0174 21.0001 20.0171 21.0001 20.0169C21.0001 20.0166 21.0001 20.0164 21.0001 20.0161C21.0001 20.0159 21.0001 20.0156 21.0001 20.0154C21.0001 20.0151 21.0001 20.0149 21.0001 20.0146C21.0001 20.0144 21.0001 20.0142 21.0001 20.0139C21.0001 20.0137 21.0001 20.0135 21.0001 20.0132C21.0001 20.013 21.0001 20.0128 21.0001 20.0126C21.0001 20.0124 21.0001 20.0122 21.0001 20.012C21.0001 20.0117 21.0001 20.0115 21.0001 20.0113C21.0001 20.0111 21.0001 20.0109 21.0001 20.0107C21.0001 20.0105 21.0001 20.0104 21.0001 20.0102C21.0001 20.01 21.0001 20.0098 21.0001 20.0096C21.0001 20.0094 21.0001 20.0093 21.0001 20.0091C21.0001 20.0089 21.0001 20.0087 21.0001 20.0086C21.0001 20.0084 21.0001 20.0082 21.0001 20.0081C21.0001 20.0079 21.0001 20.0078 21.0001 20.0076C21.0001 20.0074 21.0001 20.0073 21.0001 20.0071C21.0001 20.007 21.0001 20.0068 21.0001 20.0067C21.0001 20.0066 21.0001 20.0064 21.0001 20.0063C21.0001 20.0061 21.0001 20.006 21.0001 20.0059C21.0001 20.0057 21.0001 20.0056 21.0001 20.0055C21.0001 20.0054 21.0001 20.0052 21.0001 20.0051C21.0001 20.005 21.0001 20.0049 21.0001 20.0048C21.0001 20.0047 21.0001 20.0045 21.0001 20.0044C21.0001 20.0043 21.0001 20.0042 21.0001 20.0041C21.0001 20.004 21.0001 20.0039 21.0001 20.0038C21.0001 20.0037 21.0001 20.0036 21.0001 20.0035C21.0001 20.0034 21.0001 20.0033 21.0001 20.0032C21.0001 20.0032 21.0001 20.0031 21.0001 20.003C21.0001 20.0029 21.0001 20.0028 21.0001 20.0027C21.0001 20.0027 21.0001 20.0026 21.0001 20.0025C21.0001 20.0024 21.0001 20.0023 21.0001 20.0023C21.0001 20.0022 21.0001 20.0021 21.0001 20.0021C21.0001 20.002 21.0001 20.0019 21.0001 20.0019C21.0001 20.0018 21.0001 20.0017 21.0001 20.0017C21.0001 20.0016 21.0001 20.0016 21.0001 20.0015C21.0001 20.0015 21.0001 20.0014 21.0001 20.0014C21.0001 20.0013 21.0001 20.0012 21.0001 20.0012C21.0001 20.0012 21.0001 20.0011 21.0001 20.0011C21.0001 20.001 21.0001 20.001 21.0001 20.0009C21.0001 20.0009 21.0001 20.0008 21.0001 20.0008C21.0001 20.0008 21.0001 20.0007 21.0001 20.0007C21.0001 20.0007 21.0001 20.0006 21.0001 20.0006C21.0001 20.0006 21.0001 20.0005 21.0001 20.0005C21.0001 20.0005 21.0001 20.0004 21.0001 20.0004C21.0001 20.0004 21.0001 20.0004 21.0001 20.0003C21.0001 20.0003 21.0001 20.0003 21.0001 20.0003C21.0001 20.0002 21.0001 20.0002 21.0001 20.0002C21.0001 20.0002 21.0001 20.0002 21.0001 20.0001C21.0001 20.0001 21.0001 20.0001 21.0001 20.0001C21.0001 20.0001 21.0001 20.0001 21.0001 20C21.0001 20 21.0001 20 21.0001 20C21.0001 20 21.0001 20 21.0001 20C21.0001 20 21.0001 20 21.0001 19.9999C21.0001 19.9999 21.0001 19.9999 21.0001 19.9999C21.0001 19.9999 21.0001 19.9999 21.0001 19.9999C21.0001 19.9999 21.0001 19.9999 21.0001 19.9999C21.0001 19.9999 21.0001 19.9999 21.0001 19.9999C21.0001 19.9999 21.0001 19.9999 21.0001 19.9999C21.0001 19.9999 21.0001 19.9999 21.0001 19.9999C21.0001 19.9998 21.0001 19.9998 21.0001 19.9998C21.0001 19.9998 21.0001 19.9998 21.0001 19.9998C21.0001 19.9998 21.0001 19.9998 21.0001 19.9998C21.0001 19.9998 21.0001 19.9998 21.0001 19.9998C21.0001 19.9998 21.0001 19.9998 21.0001 19.9998H20.0001ZM21.0001 19.9998V11.6665H19.0001V19.9998H21.0001Z" fill="#787878"/>
</svg>
