<svg width="35" height="35" viewBox="0 0 35 35" fill="none" xmlns="http://www.w3.org/2000/svg">
<path d="M20.4167 14.5835C20.0261 14.193 19.393 14.193 19.0025 14.5835C18.6119 14.974 18.612 15.6072 19.0025 15.9977L20.4167 14.5835ZM19.7096 21.9173L19.0025 21.2101L19.0025 21.2102L19.7096 21.9173ZM15.2908 26.336L15.9979 27.0431L15.2908 26.336ZM8.66418 19.7093L9.37128 20.4165L8.66418 19.7093ZM11.5807 18.2071C11.9712 17.8166 11.9712 17.1834 11.5807 16.7929C11.1901 16.4023 10.557 16.4023 10.1664 16.7929L11.5807 18.2071ZM14.5838 20.4165C14.9743 20.807 15.6075 20.807 15.998 20.4164C16.3885 20.0259 16.3885 19.3927 15.9979 19.0022L14.5838 20.4165ZM15.2908 13.0827L15.9979 13.7898L15.9979 13.7898L15.2908 13.0827ZM19.7096 8.66393L20.4167 9.37104L19.7096 8.66393ZM26.3363 8.66393L25.6292 9.37104V9.37104L26.3363 8.66393ZM26.3363 15.2906L27.0434 15.9977L26.3363 15.2906ZM23.4198 16.7929C23.0293 17.1834 23.0293 17.8166 23.4198 18.2071C23.8103 18.5976 24.4435 18.5976 24.834 18.2071L23.4198 16.7929ZM19.0025 15.9977C19.6937 16.6889 20.0821 17.6264 20.0821 18.6039H22.0821C22.0821 17.096 21.483 15.6497 20.4167 14.5835L19.0025 15.9977ZM20.0821 18.6039C20.0821 19.5815 19.6937 20.5189 19.0025 21.2101L20.4167 22.6244C21.483 21.5581 22.0821 20.1119 22.0821 18.6039H20.0821ZM19.0025 21.2102L14.5837 25.6289L15.9979 27.0431L20.4167 22.6244L19.0025 21.2102ZM14.5837 25.6289C13.1444 27.0683 10.8107 27.0683 9.37128 25.6289L7.95707 27.0431C10.1775 29.2635 13.7775 29.2635 15.9979 27.0431L14.5837 25.6289ZM9.37128 25.6289C7.9319 24.1895 7.9319 21.8558 9.37128 20.4165L7.95707 19.0022C5.73664 21.2227 5.73664 24.8227 7.95707 27.0431L9.37128 25.6289ZM9.37128 20.4165L11.5807 18.2071L10.1664 16.7929L7.95707 19.0022L9.37128 20.4165ZM15.9979 19.0022C15.3067 18.311 14.9184 17.3735 14.9184 16.396H12.9184C12.9184 17.904 13.5174 19.3502 14.5838 20.4165L15.9979 19.0022ZM14.9184 16.396C14.9184 15.4185 15.3067 14.481 15.9979 13.7898L14.5838 12.3756C13.5174 13.4418 12.9184 14.888 12.9184 16.396H14.9184ZM15.9979 13.7898L20.4167 9.37104L19.0025 7.95682L14.5837 12.3756L15.9979 13.7898ZM20.4167 9.37104C21.8561 7.93166 24.1898 7.93166 25.6292 9.37104L27.0434 7.95682C24.8229 5.7364 21.2229 5.7364 19.0025 7.95682L20.4167 9.37104ZM25.6292 9.37104C27.0685 10.8104 27.0685 13.1441 25.6292 14.5835L27.0434 15.9977C29.2638 13.7773 29.2638 10.1773 27.0434 7.95682L25.6292 9.37104ZM25.6292 14.5835L23.4198 16.7929L24.834 18.2071L27.0434 15.9977L25.6292 14.5835Z" fill="#787878"/>
</svg>
