<svg width="48" height="48" viewBox="0 0 48 48" fill="none" xmlns="http://www.w3.org/2000/svg">
<g filter="url(#filter0_d_1346_1451)">
<circle cx="24" cy="20" r="20" fill="white"/>
</g>
<path d="M17.2197 25.7197C16.9268 26.0126 16.9268 26.4874 17.2197 26.7803C17.5126 27.0732 17.9874 27.0732 18.2803 26.7803L17.2197 25.7197ZM24.5303 20.5303C24.8232 20.2374 24.8232 19.7626 24.5303 19.4697C24.2374 19.1768 23.7626 19.1768 23.4697 19.4697L24.5303 20.5303ZM23.4697 19.4697C23.1768 19.7626 23.1768 20.2374 23.4697 20.5303C23.7626 20.8232 24.2374 20.8232 24.5303 20.5303L23.4697 19.4697ZM30.7803 14.2803C31.0732 13.9874 31.0732 13.5126 30.7803 13.2197C30.4874 12.9268 30.0126 12.9268 29.7197 13.2197L30.7803 14.2803ZM24.5303 19.4697C24.2374 19.1768 23.7626 19.1768 23.4697 19.4697C23.1768 19.7626 23.1768 20.2374 23.4697 20.5303L24.5303 19.4697ZM29.7197 26.7803C30.0126 27.0732 30.4874 27.0732 30.7803 26.7803C31.0732 26.4874 31.0732 26.0126 30.7803 25.7197L29.7197 26.7803ZM23.4697 20.5303C23.7626 20.8232 24.2374 20.8232 24.5303 20.5303C24.8232 20.2374 24.8232 19.7626 24.5303 19.4697L23.4697 20.5303ZM18.2803 13.2197C17.9874 12.9268 17.5126 12.9268 17.2197 13.2197C16.9268 13.5126 16.9268 13.9874 17.2197 14.2803L18.2803 13.2197ZM18.2803 26.7803L24.5303 20.5303L23.4697 19.4697L17.2197 25.7197L18.2803 26.7803ZM24.5303 20.5303L30.7803 14.2803L29.7197 13.2197L23.4697 19.4697L24.5303 20.5303ZM23.4697 20.5303L29.7197 26.7803L30.7803 25.7197L24.5303 19.4697L23.4697 20.5303ZM24.5303 19.4697L18.2803 13.2197L17.2197 14.2803L23.4697 20.5303L24.5303 19.4697Z" fill="#BABABA"/>
<defs>
<filter id="filter0_d_1346_1451" x="0" y="0" width="48" height="48" filterUnits="userSpaceOnUse" color-interpolation-filters="sRGB">
<feFlood flood-opacity="0" result="BackgroundImageFix"/>
<feColorMatrix in="SourceAlpha" type="matrix" values="0 0 0 0 0 0 0 0 0 0 0 0 0 0 0 0 0 0 127 0" result="hardAlpha"/>
<feOffset dy="4"/>
<feGaussianBlur stdDeviation="2"/>
<feComposite in2="hardAlpha" operator="out"/>
<feColorMatrix type="matrix" values="0 0 0 0 0 0 0 0 0 0 0 0 0 0 0 0 0 0 0.1 0"/>
<feBlend mode="normal" in2="BackgroundImageFix" result="effect1_dropShadow_1346_1451"/>
<feBlend mode="normal" in="SourceGraphic" in2="effect1_dropShadow_1346_1451" result="shape"/>
</filter>
</defs>
</svg>
