<svg width="35" height="35" viewBox="0 0 35 35" fill="none" xmlns="http://www.w3.org/2000/svg">
<path d="M25.5227 13.8339C25.1312 13.4443 25.1296 12.8112 25.5192 12.4197C25.9087 12.0282 26.5419 12.0266 26.9334 12.4161L25.5227 13.8339ZM31.3303 16.7911C31.7218 17.1807 31.7233 17.8138 31.3338 18.2053C30.9442 18.5968 30.3111 18.5984 29.9196 18.2089L31.3303 16.7911ZM29.9196 16.7911C30.3111 16.4016 30.9442 16.4032 31.3338 16.7947C31.7233 17.1862 31.7218 17.8193 31.3303 18.2089L29.9196 16.7911ZM26.9334 22.5839C26.5419 22.9734 25.9087 22.9718 25.5192 22.5803C25.1296 22.1888 25.1312 21.5557 25.5227 21.1661L26.9334 22.5839ZM30.6249 16.5C31.1772 16.5 31.6249 16.9477 31.6249 17.5C31.6249 18.0523 31.1772 18.5 30.6249 18.5V16.5ZM10.2083 18.5C9.65597 18.5 9.20825 18.0523 9.20825 17.5C9.20825 16.9477 9.65597 16.5 10.2083 16.5V18.5ZM26.9334 12.4161L31.3303 16.7911L29.9196 18.2089L25.5227 13.8339L26.9334 12.4161ZM31.3303 18.2089L26.9334 22.5839L25.5227 21.1661L29.9196 16.7911L31.3303 18.2089ZM30.6249 18.5L10.2083 18.5V16.5L30.6249 16.5V18.5Z" fill="#FD9D74"/>
<path d="M21.875 21.8748C21.875 25.0965 19.2633 27.7082 16.0417 27.7082H10.2083C6.98667 27.7082 4.375 25.0965 4.375 21.8748V13.1248C4.375 9.90318 6.98667 7.2915 10.2083 7.2915H16.0417C19.2633 7.2915 21.875 9.90318 21.875 13.1248" stroke="#FD9D74" stroke-width="2" stroke-linecap="round" stroke-linejoin="round"/>
</svg>
