<svg width="19" height="19" viewBox="0 0 19 19" fill="none" xmlns="http://www.w3.org/2000/svg">
<path d="M5.01136 12.9281C4.71846 13.221 4.71846 13.6959 5.01136 13.9887C5.30425 14.2816 5.77912 14.2816 6.07202 13.9887L5.01136 12.9281ZM10.0304 10.0304C10.3232 9.73752 10.3232 9.26264 10.0304 8.96975C9.73746 8.67686 9.26258 8.67686 8.96969 8.96975L10.0304 10.0304ZM8.96969 8.96975C8.6768 9.26264 8.6768 9.73752 8.96969 10.0304C9.26258 10.3233 9.73746 10.3233 10.0304 10.0304L8.96969 8.96975ZM13.9887 6.07208C14.2816 5.77918 14.2816 5.30431 13.9887 5.01142C13.6958 4.71852 13.2209 4.71852 12.928 5.01142L13.9887 6.07208ZM10.0304 8.96975C9.73746 8.67686 9.26258 8.67686 8.96969 8.96975C8.6768 9.26264 8.6768 9.73752 8.96969 10.0304L10.0304 8.96975ZM12.928 13.9887C13.2209 14.2816 13.6958 14.2816 13.9887 13.9887C14.2816 13.6959 14.2816 13.221 13.9887 12.9281L12.928 13.9887ZM8.96969 10.0304C9.26258 10.3233 9.73746 10.3233 10.0304 10.0304C10.3232 9.73752 10.3232 9.26264 10.0304 8.96975L8.96969 10.0304ZM6.07202 5.01142C5.77912 4.71852 5.30425 4.71852 5.01136 5.01142C4.71846 5.30431 4.71846 5.77918 5.01136 6.07208L6.07202 5.01142ZM6.07202 13.9887L10.0304 10.0304L8.96969 8.96975L5.01136 12.9281L6.07202 13.9887ZM10.0304 10.0304L13.9887 6.07208L12.928 5.01142L8.96969 8.96975L10.0304 10.0304ZM8.96969 10.0304L12.928 13.9887L13.9887 12.9281L10.0304 8.96975L8.96969 10.0304ZM10.0304 8.96975L6.07202 5.01142L5.01136 6.07208L8.96969 10.0304L10.0304 8.96975Z" fill="#BABABA"/>
</svg>
